<?xml version="1.0" encoding="utf-8"?>
<!-- Generator: Adobe Illustrator 15.0.0, SVG Export Plug-In . SVG Version: 6.00 Build 0)  -->
<!DOCTYPE svg PUBLIC "-//W3C//DTD SVG 1.1//EN" "http://www.w3.org/Graphics/SVG/1.1/DTD/svg11.dtd">
<svg version="1.1" id="Слой_1" xmlns="http://www.w3.org/2000/svg" xmlns:xlink="http://www.w3.org/1999/xlink" x="0px" y="0px"
	 width="32px" height="32px" viewBox="0 0 32 32" enable-background="new 0 0 32 32" xml:space="preserve">
<g id="Grid">
	<path fill="#65318F" d="M12,0H2C0.895,0,0,0.895,0,2v10c0,1.104,0.895,2,2,2h10c1.105,0,2-0.896,2-2V2C14,0.895,13.105,0,12,0z
		 M12,12H2V2h10V12z"/>
	<path fill="#65318F" d="M30,0H20c-1.105,0-2,0.895-2,2v10c0,1.104,0.895,2,2,2h10c1.104,0,2-0.896,2-2V2C32,0.895,31.104,0,30,0z
		 M30,12H20V2h10V12z"/>
	<path fill="#65318F" d="M30,18H20c-1.105,0-2,0.896-2,2v10c0,1.105,0.895,2,2,2h10c1.104,0,2-0.895,2-2V20
		C32,18.895,31.104,18,30,18z M30,30H20V20h10V30z"/>
	<path fill="#65318F" d="M12,18H2c-1.105,0-2,0.896-2,2v10c0,1.105,0.895,2,2,2h10c1.105,0,2-0.895,2-2V20
		C14,18.895,13.105,18,12,18z M12,30H2V20h10V30z"/>
</g>
</svg>
