<?xml version="1.0" encoding="utf-8"?>
<!-- Generator: Adobe Illustrator 15.0.0, SVG Export Plug-In . SVG Version: 6.00 Build 0)  -->
<!DOCTYPE svg PUBLIC "-//W3C//DTD SVG 1.1//EN" "http://www.w3.org/Graphics/SVG/1.1/DTD/svg11.dtd">
<svg version="1.1" id="Слой_1" xmlns="http://www.w3.org/2000/svg" xmlns:xlink="http://www.w3.org/1999/xlink" x="0px" y="0px"
	 width="32px" height="32px" viewBox="0 0 32 32" enable-background="new 0 0 32 32" xml:space="preserve">
<g id="Menu">
	<path fill="#65318F" d="M1,2h30c0.552,0,1-0.448,1-1s-0.448-1-1-1H1C0.448,0,0,0.448,0,1S0.448,2,1,2z"/>
	<path fill="#65318F" d="M31,10H1c-0.552,0-1,0.448-1,1s0.448,1,1,1h30c0.552,0,1-0.448,1-1S31.552,10,31,10z"/>
	<path fill="#65318F" d="M31,20H1c-0.552,0-1,0.448-1,1s0.448,1,1,1h30c0.552,0,1-0.448,1-1S31.552,20,31,20z"/>
</g>
<path fill="#65318F" d="M31,30H1c-0.552,0-1,0.448-1,1s0.448,1,1,1h30c0.552,0,1-0.448,1-1S31.552,30,31,30z"/>
</svg>
